<svg xmlns="http://www.w3.org/2000/svg" width="35" height="35" fill="none"><path fill="#41522E" d="m15.94 1.33-6.9 6.5-6.44 6.04-1.64 1.54-.83.78-.13.13.9 1.08c.5.59.92 1.07.94 1.07.02 0 1.65-1.51 3.62-3.36C15.79 5.44 17.46 3.9 17.48 3.9l2.83 2.66 7.75 7.29 4.97 4.65.04-.03c.02-.03.03-.02.06 0 .05.04-.03.13.93-1.02l.85-1.02.1-.1-2.3-2.15A8315.17 8315.17 0 0 0 19.71 2L17.59.01h-.25l-1.4 1.32Z"/><path fill="#41522E" d="m15.6 8-6.1 5.75-4.3 4.04v16.67l.07.12c.03.07.11.17.17.23.23.2-.06.19 4.27.19h3.9l.01-3.7c.01-3.67.01-3.69.07-3.82.07-.16.2-.31.36-.39.13-.06.15-.06 3.35-.07 3.57 0 3.41-.01 3.62.18a.8.8 0 0 1 .25.47c.02.12.03 1.32.03 3.75V35h4.06l4.06-.01.08-.09c.05-.05.12-.18.17-.3l.1-.22v-16.6l-6.12-5.74a476.1 476.1 0 0 0-6.18-5.73c-.04 0-.68.58-1.86 1.7Z"/></svg>